<svg width="14" height="14" viewBox="0 0 14 14" fill="none" xmlns="http://www.w3.org/2000/svg">
<path fill-rule="evenodd" clip-rule="evenodd" d="M7.3545 0.983887C3.68285 0.983887 0.708984 3.95776 0.708984 7.6294C0.708984 10.57 2.61126 13.0538 5.25286 13.9343C5.58513 13.9925 5.70974 13.7931 5.70974 13.6187C5.70974 13.4608 5.70143 12.9375 5.70143 12.3809C4.03174 12.6883 3.59978 11.9739 3.46687 11.6001C3.39211 11.409 3.06814 10.8193 2.78571 10.6614C2.55312 10.5368 2.22084 10.2295 2.7774 10.2212C3.30074 10.2128 3.67455 10.703 3.79915 10.9023C4.39725 11.9075 5.35254 11.625 5.73466 11.4506C5.7928 11.0186 5.96725 10.7279 6.15831 10.5617C4.67968 10.3956 3.1346 9.82242 3.1346 7.28051C3.1346 6.55781 3.39211 5.95972 3.81576 5.49453C3.74931 5.32839 3.51672 4.64723 3.88222 3.73347C3.88222 3.73347 4.43878 3.55902 5.70974 4.41463C6.24138 4.26511 6.80625 4.19035 7.37112 4.19035C7.93598 4.19035 8.50085 4.26511 9.03249 4.41463C10.3034 3.55072 10.86 3.73347 10.86 3.73347C11.2255 4.64723 10.9929 5.32839 10.9265 5.49453C11.3501 5.95972 11.6076 6.54951 11.6076 7.28051C11.6076 9.83073 10.0542 10.3956 8.57562 10.5617C8.81651 10.7694 9.02419 11.1681 9.02419 11.7912C9.02419 12.68 9.01588 13.3944 9.01588 13.6187C9.01588 13.7931 9.14048 14.0008 9.47276 13.9343C10.792 13.489 11.9384 12.6411 12.7505 11.5101C13.5627 10.379 13.9997 9.02181 14 7.6294C14 3.95776 11.0261 0.983887 7.3545 0.983887Z" fill="white"/>
</svg>
